<svg id="Layer_1" data-name="Layer 1" xmlns="http://www.w3.org/2000/svg" viewBox="0 0 303.29 82.11"><defs><style>.cls-1{fill:#0a2973;}</style></defs><title>vtblogo</title><path class="cls-1" d="M86.59,18.79H77.94l-6.11,18.3c-.65,1.94-1.13,3.46-1.52,5-.5-2-.82-3.16-1.1-4l-5.9-19.09,0-.14H54L66.55,56.43H74L86.86,18.79Z"/><path class="cls-1" d="M133.62,40.59a4.22,4.22,0,0,1,3.08.93,4.58,4.58,0,0,1,1.18,3.24,5.25,5.25,0,0,1-.9,3,3.57,3.57,0,0,1-3.36,1.52h-4.57V40.59Zm-1-14.38a7.16,7.16,0,0,1,2.79.43,3.22,3.22,0,0,1,1.73,3.12,3.92,3.92,0,0,1-.9,2.58,3.55,3.55,0,0,1-2.95,1H129V26.21Zm-11.41-7.41h-.6V56.43h15.14c7,0,11.59-4.23,11.59-10.77a9.11,9.11,0,0,0-3.39-7.59,10.12,10.12,0,0,0-2.77-1.64A9.16,9.16,0,0,0,143.26,35a8.65,8.65,0,0,0,2.64-6.53,9.06,9.06,0,0,0-3.11-7c-2.56-2.3-5.37-2.75-9.37-2.75Z"/><path class="cls-1" d="M118.52,18.79H88.1V26H98.65v30.4h8.49V26h9.25l2.43-7.24Z"/><path class="cls-1" d="M34.87,18.79H6.29A19.35,19.35,0,0,0,8.15,23H33.57a24.7,24.7,0,0,1,7.18,10.45H14A30.7,30.7,0,0,1,4.15,18.79c.22-.71.48-1.4.76-2.08H34.85a33.39,33.39,0,0,0,4.66-4.17H7c.43-.72.89-1.42,1.38-2.09H41.2a43.08,43.08,0,0,0,2.61-4.18H12q1.16-1.1,2.41-2.09H44.79A38.39,38.39,0,0,0,46.22,0h-33A34.44,34.44,0,0,0,0,18.79a34.46,34.46,0,0,0,13.19,18.8H46.13s-.59-10-11.26-18.81"/><path class="cls-1" d="M174.77,57a14.71,14.71,0,0,1-11.85-5.41,20.39,20.39,0,0,1-4.28-13.21,23.67,23.67,0,0,1,2.48-11.31,15.52,15.52,0,0,1,13.81-8.61,15,15,0,0,1,9.31,2.92l-2.87,4.06A10.41,10.41,0,0,0,175,23.36a8.37,8.37,0,0,0-7.47,4.5c-1.3,2.27-2,5.41-2,9.79s.49,7.09,1.46,9.21a8.72,8.72,0,0,0,8.33,5.3,10,10,0,0,0,6.72-2.37l2.91,4A16.18,16.18,0,0,1,174.77,57"/><path class="cls-1" d="M201.41,43.56c-6,0-7.74,1.73-7.74,5.2,0,2.6,1.41,4.12,3.78,4.12a6.06,6.06,0,0,0,4.93-2.77l.11-6.5s-.64-.05-1.08-.05m6.17,14.08a6.39,6.39,0,0,1-3.73-3.69,9.21,9.21,0,0,1-7.53,3.25c-6.28,0-9.1-3.35-9.1-8.12,0-6.33,4.77-9.53,13.53-9.53h1.84V38.09c0-3.14-.54-4.82-3.78-4.82-4,0-8.18,3.14-8.18,3.14L188,32.14c4.1-2.6,7.52-3.74,11.64-3.74,4.27,0,7.14,1.57,8.34,4.55.49,1.18.49,2.65.43,6.72l-.11,7.84c-.05,3.68.26,4.87,2.38,6.34Z"/><path class="cls-1" d="M220,49.72a7.89,7.89,0,0,0,5.47,2.43,4.16,4.16,0,0,0,3-1.13c2.38-2.17,2.38-6.12,2.38-8.23,0-3.52-.32-6.5-1.9-8.12a3.91,3.91,0,0,0-3.08-1.24,8.31,8.31,0,0,0-5.9,2.82Zm-.81-21.32a14.19,14.19,0,0,1,.43,3.24,9.52,9.52,0,0,1,7.31-3.24,9.19,9.19,0,0,1,6.66,2.65c1.84,1.84,3.68,5.2,3.68,11.42,0,6-1.74,9.91-4,12.07a9.8,9.8,0,0,1-7,2.65,10.43,10.43,0,0,1-6.44-2.28c.11,1.25.16,2.71.16,3.74v8l-5.74,1.47V36.19a32.07,32.07,0,0,0-.54-6.82Z"/><path class="cls-1" d="M240.54,56.49v-27l5.91-1.08v28ZM243.47,25a3.89,3.89,0,0,1-3.84-4,3.92,3.92,0,1,1,7.85,0,4,4,0,0,1-4,4"/><path class="cls-1" d="M259.76,57.2c-5.3,0-7.14-3.14-7.14-7V33.22h-3V29.1h3a54.74,54.74,0,0,1,.27-6.76L259,20.87a74.23,74.23,0,0,0-.5,8.23h6.55l-1.57,4.12h-5V48.59c0,3.42.76,4.39,3.36,4.39a7,7,0,0,0,2.49-.54l.75,3.57a12.65,12.65,0,0,1-5.35,1.19"/><path class="cls-1" d="M280.93,43.56c-6,0-7.74,1.73-7.74,5.2,0,2.6,1.4,4.12,3.79,4.12a6.1,6.1,0,0,0,4.93-2.77l.1-6.5s-.65-.05-1.09-.05m6.18,14.08a6.42,6.42,0,0,1-3.74-3.69,9.19,9.19,0,0,1-7.52,3.25c-6.28,0-9.09-3.35-9.09-8.12,0-6.33,4.77-9.53,13.54-9.53h1.82V38.09c0-3.14-.53-4.82-3.78-4.82-4,0-8.18,3.14-8.18,3.14l-2.65-4.27c4.11-2.6,7.52-3.74,11.64-3.74,4.28,0,7.14,1.57,8.33,4.55.49,1.18.49,2.65.44,6.72l-.11,7.84c-.06,3.68.26,4.87,2.38,6.34Z"/><path class="cls-1" d="M299.72,57.09c-6,0-6-5.42-6-7.74V26a44.61,44.61,0,0,0-.54-8l6-1.36a33.58,33.58,0,0,1,.49,7.53V47.4c0,3.69.16,4.27.6,4.93a1.86,1.86,0,0,0,2.1.43l1,3.68a9.33,9.33,0,0,1-3.57.65"/><path class="cls-1" d="M66,76.79a11.64,11.64,0,0,0-.13-1.85,3.17,3.17,0,0,0-.55-1.39,2.15,2.15,0,0,0-.83-.72,2.87,2.87,0,0,0-1.19-.21H62.19V80.5h1.2a2.26,2.26,0,0,0,2-.93A5.1,5.1,0,0,0,66,76.79m2-.17a7.37,7.37,0,0,1-.3,2.18,5.14,5.14,0,0,1-.84,1.65,4.55,4.55,0,0,1-.7.72,3.13,3.13,0,0,1-.81.46,4.08,4.08,0,0,1-1,.25,10.94,10.94,0,0,1-1.31.07H60.41V71.22h2.23A10.77,10.77,0,0,1,64,71.3a5.22,5.22,0,0,1,1.12.25,4.2,4.2,0,0,1,.93.46,4.06,4.06,0,0,1,.8.72A5.76,5.76,0,0,1,68,76.62"/><rect class="cls-1" x="69.73" y="71.22" width="1.83" height="10.73"/><path class="cls-1" d="M78.63,74.29a1.51,1.51,0,0,0-.49-1.23,2.65,2.65,0,0,0-1.68-.41h-.95v3.41h.88a4.77,4.77,0,0,0,1.1-.1,1.4,1.4,0,0,0,.65-.35,1.6,1.6,0,0,0,.35-.55,2.08,2.08,0,0,0,.13-.77M78.94,82,78,80.3q-.56-1-1-1.6a8.3,8.3,0,0,0-.85-1.05,1.31,1.31,0,0,0-.29-.23.91.91,0,0,0-.37-.1V82H73.73V71.22H77a4.46,4.46,0,0,1,1.56.25,3.07,3.07,0,0,1,1.08.67,2.69,2.69,0,0,1,.64,1,3.32,3.32,0,0,1,.21,1.18,3.47,3.47,0,0,1-.18,1.11A2.68,2.68,0,0,1,78.94,77a2.47,2.47,0,0,1-1.12.25,1.52,1.52,0,0,1,.34.29q.2.22.43.51c.15.2.3.41.45.64l.44.69L81.07,82Z"/><polygon class="cls-1" points="82.31 81.96 82.31 71.22 88.26 71.22 88.03 72.68 84.12 72.68 84.12 75.61 87.39 75.61 87.39 77.07 84.12 77.07 84.12 80.44 88.42 80.44 88.42 81.96 82.31 81.96"/><path class="cls-1" d="M96.82,81.17a4.7,4.7,0,0,1-2.93.95,4.46,4.46,0,0,1-1.91-.4,4.28,4.28,0,0,1-1.48-1.15,5.76,5.76,0,0,1-1.22-3.78A6.8,6.8,0,0,1,90,73.53a4.58,4.58,0,0,1,1.65-1.82,4.27,4.27,0,0,1,2.31-.65,5,5,0,0,1,1.49.22,3.41,3.41,0,0,1,1.18.62l-.82,1.16a3.28,3.28,0,0,0-.88-.46,3,3,0,0,0-.95-.15,2.32,2.32,0,0,0-1.24.33,2.63,2.63,0,0,0-.9,1,4,4,0,0,0-.42,1.18,8.19,8.19,0,0,0-.14,1.63,9.89,9.89,0,0,0,.1,1.57,3.93,3.93,0,0,0,.32,1.07,2.5,2.5,0,0,0,1,1.15,2.68,2.68,0,0,0,1.41.37,3,3,0,0,0,1-.16A3.18,3.18,0,0,0,96,80Z"/><polygon class="cls-1" points="104.41 72.71 101.71 72.71 101.71 81.96 99.92 81.96 99.92 72.71 97.21 72.71 97.21 71.22 104.64 71.22 104.41 72.71"/></svg>